<svg width="100" height="92" viewBox="0 0 100 92" fill="none" xmlns="http://www.w3.org/2000/svg">
<g opacity="0.3">
<path opacity="0.3" d="M91.4684 45.9739C91.4684 51.7145 90.3116 57.0057 88.2176 60.729C86.1236 64.5595 83.0949 66.8297 79.3513 69.0208C75.6076 71.2118 71.1514 73.2982 66.2024 76.5388C61.2534 79.6466 55.8115 83.8882 50.099 87.3434C44.3864 90.7985 38.9445 92.7265 33.9955 91.6437C29.0465 90.6938 24.5903 86.733 20.8467 81.4291C17.103 76.1251 14.0743 69.4906 11.9803 63.4257C9.88631 57.2509 8.72949 51.6584 8.72949 45.9739C8.72949 40.2894 9.88631 34.6994 11.9803 28.5247C14.0743 22.4571 17.103 15.8099 20.8467 10.5136C24.5903 5.21729 29.0465 1.25144 33.9955 0.298922C38.9445 -0.778728 44.3864 1.14929 50.099 4.60441C55.8115 8.05953 61.2534 12.3012 66.2024 15.409C71.1514 18.6445 75.6076 20.7411 79.3513 22.9219C83.0949 25.1027 86.1236 27.3832 88.2176 31.2162C90.3116 34.942 91.4684 40.2332 91.4684 45.9739Z" fill="#3ED77F"/>
</g>
<path d="M23.6595 46.1288C29.4563 51.9256 35.2446 57.7395 41.0244 63.5703C41.1898 63.7626 41.3931 63.9185 41.6216 64.0284C41.8502 64.1382 42.0989 64.1997 42.3523 64.2088C43.476 64.2343 44.6251 64.3364 45.7743 64.3364L64.5335 64.3364C64.9697 64.3488 65.3936 64.1914 65.7159 63.8972C68.7803 60.8583 71.8336 57.8212 74.8759 54.7857C82.7923 46.8949 90.7087 38.9955 98.625 31.0876C100.489 29.249 100.438 28.2275 98.5995 26.3889C96.222 24.0395 93.8727 21.6901 91.5233 19.3152C89.7612 17.5532 88.3567 17.5532 86.5436 19.3663C79.3933 26.5166 72.2346 33.6583 65.0672 40.7916C61.3746 44.5123 57.7025 48.2304 54.0099 51.9511C53.3204 51.9997 52.9628 51.4659 52.5798 51.0574C46.8596 45.3627 41.1564 39.668 35.4702 33.9733C34.0912 32.5943 32.6356 32.5432 31.3077 33.8456C28.6774 36.3993 26.0897 38.987 23.5445 41.6088C22.1426 43.0388 22.2549 44.7242 23.6595 46.1288Z" fill="#3EA489"/>
<path d="M75.4686 37.7803C72.9149 35.1755 70.3357 32.5963 67.731 30.0426C66.2243 28.5871 64.8453 28.6637 63.3131 30.2214C56.4182 37.1163 49.5403 44.0027 42.6795 50.8806L31.4433 62.1934C30.6772 62.5228 30.3989 61.8103 29.9673 61.4783C24.219 55.7837 18.5243 50.0634 12.7785 44.3687C11.1442 42.7599 10.0206 42.811 8.41175 44.4198C5.93469 46.8713 3.48316 49.3484 1.0061 51.7999C-0.296272 53.1023 -0.347345 54.9409 0.92949 56.3199C1.67006 57.086 2.43616 57.8266 3.17672 58.5672C8.28406 63.6745 13.3829 68.7818 18.4732 73.8892C18.6703 74.1048 18.9113 74.2756 19.1801 74.3902C19.4488 74.5047 19.7389 74.5603 20.031 74.5531C27.3115 74.5276 34.5869 74.5531 41.8674 74.5276C42.9502 74.5787 43.7699 73.57 44.0865 73.2508C49.8323 67.5305 55.5781 61.8018 61.3238 56.0646C66.0226 51.3403 70.7469 46.616 75.4456 41.8917C76.7965 40.5382 76.822 39.1593 75.4686 37.7803Z" fill="#3ED77F"/>
</svg>
