<svg width="100" height="112" viewBox="0 0 100 112" fill="none" xmlns="http://www.w3.org/2000/svg">
<g opacity="0.3">
<path opacity="0.3" d="M100 55.565C100 62.5033 98.6018 68.8983 96.071 73.3983C93.5401 78.0279 89.8796 80.7718 85.3549 83.4199C80.8302 86.0681 75.4444 88.5897 69.463 92.5063C63.4815 96.2625 56.9043 101.389 50 105.565C43.0957 109.741 36.5185 112.071 30.537 110.763C24.5556 109.614 19.1698 104.827 14.6451 98.4168C10.1204 92.0063 6.45988 83.9847 3.92901 76.6576C1.39815 69.1946 0 62.4354 0 55.565C0 48.6946 1.39815 41.9384 3.92901 34.4755C6.45988 27.1421 10.1204 19.1082 14.6451 12.707C19.1698 6.30573 24.5556 1.51252 30.537 0.361283C36.5185 -0.941186 43.0957 1.38906 50 5.56499C56.9043 9.74091 63.4815 14.8675 69.463 18.6236C75.4444 22.5341 80.8302 25.0681 85.3549 27.7039C89.8796 30.3397 93.5401 33.0958 96.071 37.7286C98.6018 42.2317 100 48.6267 100 55.565Z" fill="#FE6651"/>
</g>
<path d="M90.7413 87.3551H14.1981C12.8065 87.3551 11.4719 86.8023 10.488 85.8183C9.50397 84.8343 8.95117 83.4997 8.95117 82.1082V29.2717C8.95117 27.8802 9.50397 26.5456 10.488 25.5616C11.4719 24.5776 12.8065 24.0248 14.1981 24.0248H90.7413C92.1329 24.0248 93.4674 24.5776 94.4514 25.5616C95.4354 26.5456 95.9882 27.8802 95.9882 29.2717V82.1082C95.9882 83.4997 95.4354 84.8343 94.4514 85.8183C93.4674 86.8023 92.1329 87.3551 90.7413 87.3551Z" fill="#FE6651"/>
<path d="M94.4452 43.2193C94.4452 43.1915 94.4266 43.1637 94.4174 43.1359C94.403 43.0697 94.3833 43.0047 94.3587 42.9415C94.3371 42.8921 94.3094 42.8489 94.2847 42.8026C94.26 42.7563 94.2476 42.7224 94.2229 42.6853C94.1129 42.5193 93.9701 42.3775 93.8032 42.2687C93.7689 42.2461 93.7327 42.2265 93.6952 42.21C93.6475 42.1803 93.598 42.1535 93.547 42.1298C93.4904 42.109 93.4327 42.0915 93.3742 42.0773C93.3371 42.0773 93.3063 42.0526 93.2692 42.0464C93.1678 42.0249 93.0643 42.0145 92.9606 42.0156H82.4668C82.2638 42.0064 82.0612 42.0384 81.871 42.1097C81.6808 42.181 81.507 42.2901 81.3602 42.4305C81.2133 42.5708 81.0965 42.7395 81.0166 42.9262C80.9367 43.113 80.8956 43.314 80.8956 43.5171C80.8956 43.7202 80.9367 43.9213 81.0166 44.108C81.0965 44.2948 81.2133 44.4634 81.3602 44.6038C81.507 44.7441 81.6808 44.8532 81.871 44.9245C82.0612 44.9958 82.2638 45.0279 82.4668 45.0187H89.3495L71.3618 63.0063L58.9112 50.5619C58.9058 50.555 58.8996 50.5487 58.8927 50.5434L58.868 50.5156C58.8341 50.4847 58.797 50.4631 58.76 50.4353L58.6519 50.3551C58.6087 50.3273 58.5624 50.3057 58.5161 50.281C58.4698 50.2563 58.4297 50.2378 58.3865 50.2224C58.3423 50.2058 58.2969 50.1923 58.2507 50.1822C58.2031 50.167 58.1547 50.1546 58.1057 50.1452C58.0625 50.1422 58.0192 50.1422 57.976 50.1452C57.9226 50.1421 57.869 50.1421 57.8155 50.1452C57.7755 50.1422 57.7352 50.1422 57.6952 50.1452C57.6403 50.1492 57.5856 50.1564 57.5316 50.1668C57.4915 50.1668 57.4513 50.1915 57.4112 50.2039C57.3587 50.2181 57.3072 50.2356 57.2569 50.2563C57.2142 50.2748 57.1729 50.2965 57.1334 50.3211C57.0902 50.3458 57.0439 50.3674 57.0038 50.3952C56.9589 50.4268 56.9166 50.4619 56.8773 50.5001C56.8495 50.5248 56.8186 50.5434 56.7908 50.5711L56.7723 50.5927C56.7633 50.599 56.7551 50.6063 56.7476 50.6143L39.3371 69.5279C39.1979 69.6717 39.089 69.842 39.0166 70.0286C38.9442 70.2152 38.9099 70.4144 38.9157 70.6145C38.9215 70.8145 38.9672 71.0114 39.0503 71.1935C39.1334 71.3756 39.252 71.5393 39.3993 71.6748C39.5466 71.8103 39.7195 71.915 39.9078 71.9827C40.0962 72.0504 40.2962 72.0797 40.4961 72.0689C40.6959 72.0581 40.8916 72.0074 41.0716 71.9198C41.2515 71.8322 41.4121 71.7094 41.5439 71.5588L57.902 53.7964L70.3032 66.2008C70.5861 66.4821 70.969 66.6397 71.368 66.639C71.5647 66.6398 71.7596 66.6014 71.9413 66.5261C72.123 66.4509 72.288 66.3403 72.4266 66.2008L91.476 47.1483V54.0218C91.4668 54.2247 91.4988 54.4273 91.5701 54.6175C91.6415 54.8077 91.7506 54.9815 91.8909 55.1283C92.0312 55.2752 92.1999 55.3921 92.3867 55.4719C92.5734 55.5518 92.7744 55.5929 92.9776 55.5929C93.1807 55.5929 93.3817 55.5518 93.5685 55.4719C93.7552 55.3921 93.9239 55.2752 94.0642 55.1283C94.2045 54.9815 94.3137 54.8077 94.385 54.6175C94.4563 54.4273 94.4883 54.2247 94.4791 54.0218V43.5279C94.4788 43.4241 94.4674 43.3207 94.4452 43.2193Z" fill="#DD3F4F"/>
<path d="M20.9328 73.5218C20.7355 73.5222 20.5401 73.4837 20.3578 73.4085C20.1755 73.3333 20.0097 73.2228 19.8701 73.0835C19.7305 72.9442 19.6197 72.7787 19.5442 72.5965C19.4686 72.4143 19.4297 72.219 19.4297 72.0218V38.9971C19.4472 38.6106 19.6131 38.2458 19.8927 37.9785C20.1724 37.7112 20.5444 37.5621 20.9312 37.5621C21.3181 37.5621 21.69 37.7112 21.9697 37.9785C22.2494 38.2458 22.4152 38.6106 22.4328 38.9971V72.0218C22.4328 72.2187 22.394 72.4138 22.3186 72.5958C22.2432 72.7778 22.1327 72.9431 21.9934 73.0824C21.8541 73.2217 21.6888 73.3322 21.5068 73.4076C21.3248 73.483 21.1298 73.5218 20.9328 73.5218ZM29.9389 42.0032H26.9389C26.736 42.0124 26.5334 41.9804 26.3432 41.9091C26.153 41.8378 25.9792 41.7287 25.8324 41.5883C25.6855 41.448 25.5686 41.2794 25.4888 41.0926C25.4089 40.9058 25.3678 40.7048 25.3678 40.5017C25.3678 40.2986 25.4089 40.0976 25.4888 39.9108C25.5686 39.724 25.6855 39.5554 25.8324 39.415C25.9792 39.2747 26.153 39.1656 26.3432 39.0943C26.5334 39.023 26.736 38.991 26.9389 39.0002H29.9389C30.1419 38.991 30.3445 39.023 30.5347 39.0943C30.7249 39.1656 30.8987 39.2747 31.0455 39.415C31.1924 39.5554 31.3093 39.724 31.3891 39.9108C31.469 40.0976 31.5101 40.2986 31.5101 40.5017C31.5101 40.7048 31.469 40.9058 31.3891 41.0926C31.3093 41.2794 31.1924 41.448 31.0455 41.5883C30.8987 41.7287 30.7249 41.8378 30.5347 41.9091C30.3445 41.9804 30.1419 42.0124 29.9389 42.0032ZM32.942 48.0063H26.9359C26.538 48.0063 26.1565 47.8483 25.8752 47.567C25.5939 47.2857 25.4359 46.9041 25.4359 46.5063C25.4359 46.1085 25.5939 45.727 25.8752 45.4457C26.1565 45.1644 26.538 45.0063 26.9359 45.0063H32.9389C33.3368 45.0063 33.7183 45.1644 33.9996 45.4457C34.2809 45.727 34.4389 46.1085 34.4389 46.5063C34.4389 46.9041 34.2809 47.2857 33.9996 47.567C33.7183 47.8483 33.3368 48.0063 32.9389 48.0063H32.942ZM29.9389 54.0218H26.9389C26.5411 54.0218 26.1596 53.8637 25.8783 53.5824C25.597 53.3011 25.4389 52.9196 25.4389 52.5218C25.4389 52.1239 25.597 51.7424 25.8783 51.4611C26.1596 51.1798 26.5411 51.0218 26.9389 51.0218H29.9389C30.3368 51.0218 30.7183 51.1798 30.9996 51.4611C31.2809 51.7424 31.4389 52.1239 31.4389 52.5218C31.4389 52.9196 31.2809 53.3011 30.9996 53.5824C30.7183 53.8637 30.3368 54.0218 29.9389 54.0218ZM32.942 60.0279H26.9359C26.7329 60.0371 26.5303 60.0051 26.3401 59.9338C26.1499 59.8625 25.9761 59.7534 25.8293 59.613C25.6824 59.4727 25.5656 59.3041 25.4857 59.1173C25.4059 58.9305 25.3647 58.7295 25.3647 58.5264C25.3647 58.3233 25.4059 58.1223 25.4857 57.9355C25.5656 57.7487 25.6824 57.5801 25.8293 57.4397C25.9761 57.2994 26.1499 57.1903 26.3401 57.119C26.5303 57.0477 26.7329 57.0156 26.9359 57.0248H32.9389C33.3254 57.0424 33.6902 57.2082 33.9575 57.4879C34.2248 57.7676 34.3739 58.1395 34.3739 58.5264C34.3739 58.9132 34.2248 59.2852 33.9575 59.5649C33.6902 59.8446 33.3254 60.0104 32.9389 60.0279H32.942ZM29.9389 66.0187H26.9389C26.736 66.0279 26.5334 65.9959 26.3432 65.9245C26.153 65.8532 25.9792 65.7441 25.8324 65.6038C25.6855 65.4634 25.5686 65.2948 25.4888 65.108C25.4089 64.9213 25.3678 64.7202 25.3678 64.5171C25.3678 64.314 25.4089 64.113 25.4888 63.9262C25.5686 63.7395 25.6855 63.5708 25.8324 63.4305C25.9792 63.2901 26.153 63.181 26.3432 63.1097C26.5334 63.0384 26.736 63.0064 26.9389 63.0156H29.9389C30.1419 63.0064 30.3445 63.0384 30.5347 63.1097C30.7249 63.181 30.8987 63.2901 31.0455 63.4305C31.1924 63.5708 31.3093 63.7395 31.3891 63.9262C31.469 64.113 31.5101 64.314 31.5101 64.5171C31.5101 64.7202 31.469 64.9213 31.3891 65.108C31.3093 65.2948 31.1924 65.4634 31.0455 65.6038C30.8987 65.7441 30.7249 65.8532 30.5347 65.9245C30.3445 65.9959 30.1419 66.0279 29.9389 66.0187ZM32.942 72.0218H26.9359C26.538 72.0218 26.1565 71.8637 25.8752 71.5824C25.5939 71.3011 25.4359 70.9196 25.4359 70.5218C25.4359 70.1239 25.5939 69.7424 25.8752 69.4611C26.1565 69.1798 26.538 69.0218 26.9359 69.0218H32.9389C33.3368 69.0218 33.7183 69.1798 33.9996 69.4611C34.2809 69.7424 34.4389 70.1239 34.4389 70.5218C34.4389 70.9196 34.2809 71.3011 33.9996 71.5824C33.7183 71.8637 33.3368 72.0218 32.9389 72.0218H32.942Z" fill="#DD3F4F"/>
</svg>
